<svg data-cached="true" xmlns="http://www.w3.org/2000/svg" width="753" height="531" viewBox="0 0 753 531" preserveAspectRatio="xMidYMid meet"><svg id="__background" x="0" y="0" width="753" height="531" preserveAspectRatio="xMidYMid meet"><rect x="0" y="0" width="753" height="531" fill="#ffffff" stroke="none" stroke-width="0px"/></svg><g id="__padding" transform="translate(26 26)"><svg id="data" x="0" y="0" width="701" height="479" viewBox="0 0 695 473" preserveAspectRatio="xMinYMid meet"><path d="M0 0L0 473L695 473L695 0ZM3 3L3 470L692 470L692 3Z" fill="#ffffff" fill-rule="evenodd"/><path fill="#000000" d="M62 440 L68 440 L68 8 L62 8 Z"/><path fill="#000000" d="M74 440 L80 440 L80 8 L74 8 Z"/><path fill="#000000" d="M86 408 L98 408 L98 8 L86 8 Z"/><path fill="#000000" d="M116 408 L122 408 L122 8 L116 8 Z"/><path fill="#000000" d="M146 408 L152 408 L152 8 L146 8 Z"/><path fill="#000000" d="M158 408 L164 408 L164 8 L158 8 Z"/><path fill="#000000" d="M170 408 L182 408 L182 8 L170 8 Z"/><path fill="#000000" d="M200 408 L206 408 L206 8 L200 8 Z"/><path fill="#000000" d="M218 408 L230 408 L230 8 L218 8 Z"/><path fill="#000000" d="M242 408 L248 408 L248 8 L242 8 Z"/><path fill="#000000" d="M272 408 L278 408 L278 8 L272 8 Z"/><path fill="#000000" d="M284 408 L290 408 L290 8 L284 8 Z"/><path fill="#000000" d="M302 408 L314 408 L314 8 L302 8 Z"/><path fill="#000000" d="M320 408 L332 408 L332 8 L320 8 Z"/><path fill="#000000" d="M338 440 L344 440 L344 8 L338 8 Z"/><path fill="#000000" d="M350 440 L356 440 L356 8 L350 8 Z"/><path fill="#000000" d="M362 408 L374 408 L374 8 L362 8 Z"/><path fill="#000000" d="M386 408 L398 408 L398 8 L386 8 Z"/><path fill="#000000" d="M404 408 L416 408 L416 8 L404 8 Z"/><path fill="#000000" d="M428 408 L440 408 L440 8 L428 8 Z"/><path fill="#000000" d="M446 408 L458 408 L458 8 L446 8 Z"/><path fill="#000000" d="M470 408 L482 408 L482 8 L470 8 Z"/><path fill="#000000" d="M488 408 L494 408 L494 8 L488 8 Z"/><path fill="#000000" d="M518 408 L524 408 L524 8 L518 8 Z"/><path fill="#000000" d="M530 408 L542 408 L542 8 L530 8 Z"/><path fill="#000000" d="M548 408 L560 408 L560 8 L548 8 Z"/><path fill="#000000" d="M572 408 L578 408 L578 8 L572 8 Z"/><path fill="#000000" d="M602 408 L608 408 L608 8 L602 8 Z"/><path fill="#000000" d="M614 440 L620 440 L620 8 L614 8 Z"/><path fill="#000000" d="M626 440 L632 440 L632 8 L626 8 Z"/><path d="M6.95 452.63Q6.10 451.81 6.10 450.63L6.10 447.94Q6.10 447.44 6.43 446.75L20.29 417.82Q20.55 417.13 21.27 416.69Q21.99 416.19 22.77 416.19Q23.94 416.19 24.78 417.07Q25.63 417.88 25.63 419.00Q25.63 419.63 25.31 420.19L12.29 447.81L24.98 447.81L24.98 440.25Q24.98 439.13 25.83 438.31Q26.67 437.44 27.78 437.44Q28.89 437.44 29.73 438.31Q30.64 439.13 30.64 440.25L30.64 447.81L34.42 447.81Q35.66 447.81 36.50 448.69Q37.35 449.50 37.35 450.63Q37.35 451.75 36.44 452.63Q35.59 453.44 34.42 453.44L30.64 453.44L30.64 461.50Q30.64 462.63 29.73 463.44Q28.89 464.31 27.78 464.31Q26.67 464.31 25.83 463.50Q24.98 462.63 24.98 461.50L24.98 453.44L9.03 453.44Q7.86 453.44 6.95 452.63Z" fill="#000000"/><path d="M92.64 463.69Q91.79 462.88 91.79 461.69Q91.79 460.44 92.64 459.63Q93.55 458.81 94.72 458.81Q107.87 458.81 111.71 451.75Q112.89 449.63 112.89 447.69Q112.89 443.13 110.67 440.81Q107.74 437.50 100.39 437.50Q98.37 437.50 96.29 437.69L96.03 437.69Q94.85 437.69 93.94 436.94Q93.10 436.13 93.10 435.00L93.10 434.81L94.01 418.88Q94.14 417.75 94.92 417.00Q95.76 416.25 96.94 416.25L115.42 416.25Q116.66 416.25 117.51 417.13Q118.35 417.94 118.35 419.07Q118.35 420.19 117.44 421.07Q116.60 421.94 115.42 421.94L99.67 421.94L99.15 431.75L100.39 431.75Q108.65 431.75 113.67 435.81Q118.75 439.81 118.75 447.69Q118.75 451.00 117.25 453.88Q115.69 456.81 113.34 458.88Q107.09 464.50 94.72 464.50Q93.55 464.50 92.64 463.69M96.22 437.69Q96.22 437.69 96.29 437.69Q96.29 437.69 96.22 437.69Z" fill="#000000"/><path d="M136.66 460.44Q132.30 456.38 132.10 449.69L132.10 448.94Q132.10 441.13 136.59 434.00Q138.42 431.06 141.02 427.82Q143.56 424.50 145.32 422.57Q147.07 420.57 150.33 417.00Q151.05 416.19 152.35 416.19Q153.45 416.19 154.30 417.07Q155.15 417.88 155.15 419.00Q155.15 420.07 154.43 420.94Q147.07 428.94 143.62 433.75L143.17 434.38L143.88 434.25Q145.77 433.88 147.73 433.88Q154.82 433.88 159.05 438.13Q163.35 442.44 163.35 449.69Q163.35 456.25 158.92 460.38Q154.50 464.50 147.73 464.50Q140.95 464.50 136.66 460.44M140.56 442.25Q137.96 444.94 137.96 449.69Q137.96 453.94 140.69 456.44Q143.36 458.88 147.73 458.88Q152.02 458.88 154.69 456.38Q157.49 453.88 157.49 449.69Q157.49 444.81 154.95 442.19Q152.48 439.50 147.73 439.50Q143.10 439.50 140.56 442.25Z" fill="#000000"/><path d="M176.64 463.69Q175.79 462.88 175.79 461.69Q175.79 460.44 176.64 459.63Q177.55 458.81 178.72 458.81Q191.87 458.81 195.71 451.75Q196.89 449.63 196.89 447.69Q196.89 443.13 194.67 440.81Q191.74 437.50 184.39 437.50Q182.37 437.50 180.29 437.69L180.03 437.69Q178.85 437.69 177.94 436.94Q177.10 436.13 177.10 435.00L177.10 434.81L178.01 418.88Q178.14 417.75 178.92 417.00Q179.76 416.25 180.94 416.25L199.42 416.25Q200.66 416.25 201.51 417.13Q202.35 417.94 202.35 419.07Q202.35 420.19 201.44 421.07Q200.60 421.94 199.42 421.94L183.67 421.94L183.15 431.75L184.39 431.75Q192.65 431.75 197.67 435.81Q202.75 439.81 202.75 447.69Q202.75 451.00 201.25 453.88Q199.69 456.81 197.34 458.88Q191.09 464.50 178.72 464.50Q177.55 464.50 176.64 463.69M180.22 437.69Q180.22 437.69 180.29 437.69Q180.29 437.69 180.22 437.69Z" fill="#000000"/><path d="M218.97 430.63Q218.12 429.75 218.12 428.63Q218.12 427.32 218.97 426.69L230.88 416.88Q231.73 416.19 232.77 416.19L234.85 416.19Q236.02 416.19 236.87 417.07Q237.78 417.88 237.78 419.00L237.78 461.50Q237.78 462.63 236.87 463.50Q236.02 464.31 234.85 464.31Q233.68 464.31 232.77 463.50Q231.92 462.69 231.92 461.50L231.92 423.44L223.00 430.75Q222.16 431.44 221.05 431.44Q219.81 431.44 218.97 430.63Z" fill="#000000"/><path d="M262.66 460.44Q258.30 456.38 258.10 449.69L258.10 448.94Q258.10 441.13 262.59 434.00Q264.42 431.06 267.02 427.82Q269.56 424.50 271.32 422.57Q273.07 420.57 276.33 417.00Q277.05 416.19 278.35 416.19Q279.45 416.19 280.30 417.07Q281.15 417.88 281.15 419.00Q281.15 420.07 280.43 420.94Q273.07 428.94 269.62 433.75L269.17 434.38L269.88 434.25Q271.77 433.88 273.73 433.88Q280.82 433.88 285.05 438.13Q289.35 442.44 289.35 449.69Q289.35 456.25 284.92 460.38Q280.50 464.50 273.73 464.50Q266.95 464.50 262.66 460.44M266.56 442.25Q263.96 444.94 263.96 449.69Q263.96 453.94 266.69 456.44Q269.36 458.88 273.73 458.88Q278.02 458.88 280.69 456.38Q283.49 453.88 283.49 449.69Q283.49 444.81 280.95 442.19Q278.48 439.50 273.73 439.50Q269.10 439.50 266.56 442.25Z" fill="#000000"/><path d="M302.05 424.07Q301.21 423.19 301.21 422.13Q301.21 420.57 302.44 419.75Q308.37 416.00 315.73 416.00Q321.65 416.00 325.62 419.63Q329.66 423.19 329.66 429.00Q329.66 431.31 328.81 433.44Q327.96 435.63 326.86 437.00Q325.82 438.38 323.73 440.06Q321.65 441.75 320.54 442.50Q319.50 443.25 317.22 444.69Q314.75 446.25 313.64 447.06Q312.54 447.88 310.97 449.50Q309.41 451.06 308.69 453.06Q307.98 455.00 307.85 457.69L307.85 458.00L327.12 458.00Q328.35 458.00 329.20 458.88Q330.05 459.69 330.05 460.81Q330.05 461.94 329.14 462.81Q328.29 463.63 327.12 463.63L304.85 463.63Q303.68 463.63 302.77 462.81Q301.92 461.94 301.92 460.81L301.92 459.50Q301.92 454.63 302.58 452.50Q303.68 448.75 306.74 445.81Q309.80 442.81 314.23 439.94Q320.35 436.00 321.97 433.75Q323.80 431.50 323.80 429.00Q323.80 425.69 321.39 423.63Q319.11 421.63 315.73 421.63Q309.87 421.63 305.83 424.38Q305.11 424.88 304.14 424.88Q302.97 424.88 302.05 424.07Z" fill="#000000"/><path d="M368.97 430.63Q368.12 429.75 368.12 428.63Q368.12 427.32 368.97 426.69L380.88 416.88Q381.73 416.19 382.77 416.19L384.85 416.19Q386.02 416.19 386.87 417.07Q387.78 417.88 387.78 419.00L387.78 461.50Q387.78 462.63 386.87 463.50Q386.02 464.31 384.85 464.31Q383.68 464.31 382.77 463.50Q381.92 462.69 381.92 461.50L381.92 423.44L373.00 430.75Q372.16 431.44 371.05 431.44Q369.81 431.44 368.97 430.63Z" fill="#000000"/><path d="M410.97 430.63Q410.12 429.75 410.12 428.63Q410.12 427.32 410.97 426.69L422.88 416.88Q423.73 416.19 424.77 416.19L426.85 416.19Q428.02 416.19 428.87 417.07Q429.78 417.88 429.78 419.00L429.78 461.50Q429.78 462.63 428.87 463.50Q428.02 464.31 426.85 464.31Q425.68 464.31 424.77 463.50Q423.92 462.69 423.92 461.50L423.92 423.44L415.00 430.75Q414.16 431.44 413.05 431.44Q411.81 431.44 410.97 430.63Z" fill="#000000"/><path d="M452.97 430.63Q452.12 429.75 452.12 428.63Q452.12 427.32 452.97 426.69L464.88 416.88Q465.73 416.19 466.77 416.19L468.85 416.19Q470.02 416.19 470.87 417.07Q471.78 417.88 471.78 419.00L471.78 461.50Q471.78 462.63 470.87 463.50Q470.02 464.31 468.85 464.31Q467.68 464.31 466.77 463.50Q465.92 462.69 465.92 461.50L465.92 423.44L457.00 430.75Q456.16 431.44 455.05 431.44Q453.81 431.44 452.97 430.63Z" fill="#000000"/><path d="M493.47 462.13Q492.10 461.13 492.10 459.63Q492.10 458.44 492.95 457.63Q493.86 456.75 495.03 456.75Q495.42 456.75 496.14 457.00Q500.30 458.81 504.86 458.81Q509.81 458.81 513.19 456.44Q516.64 454.00 516.90 449.38L516.90 448.75Q516.90 445.56 514.82 443.31Q512.87 441.13 510.00 440.19Q507.20 439.31 503.75 439.31Q502.65 439.31 501.80 438.50Q500.95 437.63 500.95 436.44Q500.95 435.31 501.54 434.69L513.52 421.94L495.23 421.94Q494.05 421.94 493.14 421.13Q492.30 420.25 492.30 419.07Q492.30 417.88 493.14 417.07Q493.99 416.25 495.23 416.25L518.21 416.25Q519.38 416.25 520.22 417.13Q521.14 417.94 521.14 419.07L521.14 421.32Q521.14 422.32 520.22 423.19L509.74 434.25L510.26 434.38Q515.80 435.75 519.31 439.44Q522.76 443.13 522.76 448.69L522.76 449.69Q522.44 456.50 517.23 460.50Q512.15 464.50 504.86 464.50Q503.04 464.50 501.22 464.31Q499.39 464.12 497.11 463.69Q494.84 463.19 493.47 462.13Z" fill="#000000"/><path d="M536.05 424.07Q535.21 423.19 535.21 422.13Q535.21 420.57 536.44 419.75Q542.37 416.00 549.73 416.00Q555.65 416.00 559.62 419.63Q563.66 423.19 563.66 429.00Q563.66 431.31 562.81 433.44Q561.96 435.63 560.86 437.00Q559.82 438.38 557.73 440.06Q555.65 441.75 554.54 442.50Q553.50 443.25 551.22 444.69Q548.75 446.25 547.64 447.06Q546.54 447.88 544.97 449.50Q543.41 451.06 542.69 453.06Q541.98 455.00 541.85 457.69L541.85 458.00L561.12 458.00Q562.35 458.00 563.20 458.88Q564.05 459.69 564.05 460.81Q564.05 461.94 563.14 462.81Q562.29 463.63 561.12 463.63L538.85 463.63Q537.68 463.63 536.77 462.81Q535.92 461.94 535.92 460.81L535.92 459.50Q535.92 454.63 536.58 452.50Q537.68 448.75 540.74 445.81Q543.80 442.81 548.23 439.94Q554.35 436.00 555.97 433.75Q557.80 431.50 557.80 429.00Q557.80 425.69 555.39 423.63Q553.11 421.63 549.73 421.63Q543.87 421.63 539.83 424.38Q539.11 424.88 538.14 424.88Q536.97 424.88 536.05 424.07Z" fill="#000000"/><path d="M577.47 462.13Q576.10 461.13 576.10 459.63Q576.10 458.44 576.95 457.63Q577.86 456.75 579.03 456.75Q579.42 456.75 580.14 457.00Q584.30 458.81 588.86 458.81Q593.81 458.81 597.19 456.44Q600.64 454.00 600.90 449.38L600.90 448.75Q600.90 445.56 598.82 443.31Q596.87 441.13 594.00 440.19Q591.20 439.31 587.75 439.31Q586.65 439.31 585.80 438.50Q584.95 437.63 584.95 436.44Q584.95 435.31 585.54 434.69L597.52 421.94L579.23 421.94Q578.05 421.94 577.14 421.13Q576.30 420.25 576.30 419.07Q576.30 417.88 577.14 417.07Q577.99 416.25 579.23 416.25L602.21 416.25Q603.38 416.25 604.22 417.13Q605.14 417.94 605.14 419.07L605.14 421.32Q605.14 422.32 604.22 423.19L593.74 434.25L594.26 434.38Q599.80 435.75 603.31 439.44Q606.76 443.13 606.76 448.69L606.76 449.69Q606.44 456.50 601.23 460.50Q596.15 464.50 588.86 464.50Q587.04 464.50 585.22 464.31Q583.39 464.12 581.11 463.69Q578.84 463.19 577.47 462.13Z" fill="#000000"/></svg></g></svg>