<svg data-cached="true" xmlns="http://www.w3.org/2000/svg" width="753" height="531" viewBox="0 0 753 531" preserveAspectRatio="xMidYMid meet"><svg id="__background" x="0" y="0" width="753" height="531" preserveAspectRatio="xMidYMid meet"><rect x="0" y="0" width="753" height="531" fill="#ffffff" stroke="none" stroke-width="0px"/></svg><g id="__padding" transform="translate(26 26)"><svg id="data" x="0" y="0" width="701" height="479" viewBox="0 0 695 473" preserveAspectRatio="xMinYMid meet"><path d="M0 0L0 473L695 473L695 0ZM3 3L3 470L692 470L692 3Z" fill="#ffffff" fill-rule="evenodd"/><path fill="#000000" d="M62 440 L68 440 L68 8 L62 8 Z"/><path fill="#000000" d="M74 440 L80 440 L80 8 L74 8 Z"/><path fill="#000000" d="M98 408 L104 408 L104 8 L98 8 Z"/><path fill="#000000" d="M110 408 L122 408 L122 8 L110 8 Z"/><path fill="#000000" d="M140 408 L146 408 L146 8 L140 8 Z"/><path fill="#000000" d="M158 408 L164 408 L164 8 L158 8 Z"/><path fill="#000000" d="M176 408 L182 408 L182 8 L176 8 Z"/><path fill="#000000" d="M188 408 L206 408 L206 8 L188 8 Z"/><path fill="#000000" d="M224 408 L230 408 L230 8 L224 8 Z"/><path fill="#000000" d="M242 408 L248 408 L248 8 L242 8 Z"/><path fill="#000000" d="M254 408 L266 408 L266 8 L254 8 Z"/><path fill="#000000" d="M272 408 L290 408 L290 8 L272 8 Z"/><path fill="#000000" d="M308 408 L320 408 L320 8 L308 8 Z"/><path fill="#000000" d="M326 408 L332 408 L332 8 L326 8 Z"/><path fill="#000000" d="M338 440 L344 440 L344 8 L338 8 Z"/><path fill="#000000" d="M350 440 L356 440 L356 8 L350 8 Z"/><path fill="#000000" d="M362 408 L368 408 L368 8 L362 8 Z"/><path fill="#000000" d="M380 408 L386 408 L386 8 L380 8 Z"/><path fill="#000000" d="M404 408 L416 408 L416 8 L404 8 Z"/><path fill="#000000" d="M422 408 L434 408 L434 8 L422 8 Z"/><path fill="#000000" d="M446 408 L452 408 L452 8 L446 8 Z"/><path fill="#000000" d="M464 408 L470 408 L470 8 L464 8 Z"/><path fill="#000000" d="M488 408 L494 408 L494 8 L488 8 Z"/><path fill="#000000" d="M500 408 L506 408 L506 8 L500 8 Z"/><path fill="#000000" d="M530 408 L536 408 L536 8 L530 8 Z"/><path fill="#000000" d="M548 408 L554 408 L554 8 L548 8 Z"/><path fill="#000000" d="M572 408 L590 408 L590 8 L572 8 Z"/><path fill="#000000" d="M602 408 L608 408 L608 8 L602 8 Z"/><path fill="#000000" d="M614 440 L620 440 L620 8 L614 8 Z"/><path fill="#000000" d="M626 440 L632 440 L632 8 L626 8 Z"/><path d="M10.66 460.44Q6.30 456.38 6.10 449.69L6.10 448.94Q6.10 441.13 10.59 434.00Q12.42 431.06 15.02 427.82Q17.56 424.50 19.32 422.57Q21.07 420.57 24.33 417.00Q25.05 416.19 26.35 416.19Q27.45 416.19 28.30 417.07Q29.15 417.88 29.15 419.00Q29.15 420.07 28.43 420.94Q21.07 428.94 17.62 433.75L17.17 434.38L17.88 434.25Q19.77 433.88 21.73 433.88Q28.82 433.88 33.05 438.13Q37.35 442.44 37.35 449.69Q37.35 456.25 32.92 460.38Q28.50 464.50 21.73 464.50Q14.95 464.50 10.66 460.44M14.56 442.25Q11.96 444.94 11.96 449.69Q11.96 453.94 14.69 456.44Q17.36 458.88 21.73 458.88Q26.02 458.88 28.69 456.38Q31.49 453.88 31.49 449.69Q31.49 444.81 28.95 442.19Q26.48 439.50 21.73 439.50Q17.10 439.50 14.56 442.25Z" fill="#000000"/><path d="M98.82 424.69Q95.96 427.69 95.96 431.88Q95.96 435.94 98.69 438.50Q101.30 441.00 105.73 441.00Q113.47 441.00 114.84 436.44Q115.49 434.38 115.49 431.88Q115.49 427.19 112.76 424.44Q110.09 421.63 105.73 421.63Q101.62 421.63 98.82 424.69M94.53 442.38Q90.10 438.19 90.10 431.88Q90.10 425.38 94.79 420.69Q99.35 416.00 105.73 416.00Q112.30 416.00 116.79 420.38Q121.35 424.75 121.35 431.88Q121.35 436.31 119.98 439.88Q118.61 443.44 116.14 447.56Q110.74 456.63 102.93 463.56Q102.08 464.31 101.10 464.31Q100.00 464.31 99.15 463.50Q98.30 462.69 98.30 461.50Q98.30 460.31 99.22 459.44Q105.40 453.75 109.83 446.88L110.15 446.25L109.50 446.38Q107.81 446.63 105.73 446.63Q98.82 446.63 94.53 442.38Z" fill="#000000"/><path d="M142.65 422.88Q140.17 424.13 140.17 426.50Q140.17 428.07 140.76 429.25Q141.35 430.44 142.71 431.44Q144.01 432.38 144.86 432.88Q145.77 433.38 147.59 434.25L147.73 434.25L147.86 434.25Q149.68 433.44 150.59 432.94Q151.50 432.44 152.80 431.50Q154.10 430.50 154.69 429.32Q155.28 428.07 155.28 426.50Q155.28 424.13 152.80 422.88Q150.39 421.63 147.73 421.63Q145.06 421.63 142.65 422.88M147.73 440.69Q137.90 445.63 137.90 451.50Q137.90 455.00 140.82 456.94Q143.56 458.88 147.73 458.88L149.03 458.88Q152.48 458.88 154.95 456.69Q157.49 454.50 157.49 451.50Q157.49 445.56 147.99 440.69L147.86 440.56L147.73 440.69M136.59 460.88Q132.10 457.25 132.10 451.50Q132.10 443.94 141.35 437.81L141.74 437.56L141.35 437.31Q134.31 433.19 134.31 426.50Q134.31 421.94 138.48 419.00Q142.58 416.00 147.73 416.00Q152.80 416.00 156.97 419.00Q161.14 422.00 161.14 426.50Q161.14 430.19 159.31 432.75Q157.42 435.25 154.10 437.31L153.71 437.56L154.10 437.81Q163.35 443.94 163.35 451.50Q163.35 456.44 159.57 460.25Q155.80 464.06 150.46 464.50L147.73 464.50Q141.02 464.50 136.59 460.88Z" fill="#000000"/><path d="M182.82 424.69Q179.96 427.69 179.96 431.88Q179.96 435.94 182.69 438.50Q185.30 441.00 189.73 441.00Q197.47 441.00 198.84 436.44Q199.49 434.38 199.49 431.88Q199.49 427.19 196.76 424.44Q194.09 421.63 189.73 421.63Q185.62 421.63 182.82 424.69M178.53 442.38Q174.10 438.19 174.10 431.88Q174.10 425.38 178.79 420.69Q183.35 416.00 189.73 416.00Q196.30 416.00 200.79 420.38Q205.35 424.75 205.35 431.88Q205.35 436.31 203.98 439.88Q202.61 443.44 200.14 447.56Q194.74 456.63 186.93 463.56Q186.08 464.31 185.10 464.31Q184.00 464.31 183.15 463.50Q182.30 462.69 182.30 461.50Q182.30 460.31 183.22 459.44Q189.40 453.75 193.83 446.88L194.15 446.25L193.50 446.38Q191.81 446.63 189.73 446.63Q182.82 446.63 178.53 442.38Z" fill="#000000"/><path d="M226.65 422.88Q224.17 424.13 224.17 426.50Q224.17 428.07 224.76 429.25Q225.35 430.44 226.71 431.44Q228.01 432.38 228.86 432.88Q229.77 433.38 231.59 434.25L231.73 434.25L231.86 434.25Q233.68 433.44 234.59 432.94Q235.50 432.44 236.80 431.50Q238.10 430.50 238.69 429.32Q239.28 428.07 239.28 426.50Q239.28 424.13 236.80 422.88Q234.39 421.63 231.73 421.63Q229.06 421.63 226.65 422.88M231.73 440.69Q221.90 445.63 221.90 451.50Q221.90 455.00 224.82 456.94Q227.56 458.88 231.73 458.88L233.03 458.88Q236.48 458.88 238.95 456.69Q241.49 454.50 241.49 451.50Q241.49 445.56 231.99 440.69L231.86 440.56L231.73 440.69M220.59 460.88Q216.10 457.25 216.10 451.50Q216.10 443.94 225.35 437.81L225.74 437.56L225.35 437.31Q218.31 433.19 218.31 426.50Q218.31 421.94 222.48 419.00Q226.58 416.00 231.73 416.00Q236.80 416.00 240.97 419.00Q245.14 422.00 245.14 426.50Q245.14 430.19 243.31 432.75Q241.42 435.25 238.10 437.31L237.71 437.56L238.10 437.81Q247.35 443.94 247.35 451.50Q247.35 456.44 243.57 460.25Q239.80 464.06 234.46 464.50L231.73 464.50Q225.02 464.50 220.59 460.88Z" fill="#000000"/><path d="M268.65 422.88Q266.17 424.13 266.17 426.50Q266.17 428.07 266.76 429.25Q267.35 430.44 268.71 431.44Q270.01 432.38 270.86 432.88Q271.77 433.38 273.59 434.25L273.73 434.25L273.86 434.25Q275.68 433.44 276.59 432.94Q277.50 432.44 278.80 431.50Q280.10 430.50 280.69 429.32Q281.28 428.07 281.28 426.50Q281.28 424.13 278.80 422.88Q276.39 421.63 273.73 421.63Q271.06 421.63 268.65 422.88M273.73 440.69Q263.90 445.63 263.90 451.50Q263.90 455.00 266.82 456.94Q269.56 458.88 273.73 458.88L275.03 458.88Q278.48 458.88 280.95 456.69Q283.49 454.50 283.49 451.50Q283.49 445.56 273.99 440.69L273.86 440.56L273.73 440.69M262.59 460.88Q258.10 457.25 258.10 451.50Q258.10 443.94 267.35 437.81L267.74 437.56L267.35 437.31Q260.31 433.19 260.31 426.50Q260.31 421.94 264.48 419.00Q268.58 416.00 273.73 416.00Q278.80 416.00 282.97 419.00Q287.14 422.00 287.14 426.50Q287.14 430.19 285.31 432.75Q283.42 435.25 280.10 437.31L279.71 437.56L280.10 437.81Q289.35 443.94 289.35 451.50Q289.35 456.44 285.57 460.25Q281.80 464.06 276.46 464.50L273.73 464.50Q267.02 464.50 262.59 460.88Z" fill="#000000"/><path d="M315.99 464.50L315.73 464.50Q311.88 464.44 309.02 463.25Q306.16 462.13 304.46 460.31Q302.77 458.44 301.79 455.50Q300.75 452.56 300.43 449.56Q300.10 446.63 300.10 442.63Q300.10 439.06 300.17 436.56Q300.30 434.00 300.69 431.06Q301.08 428.07 301.73 426.07Q302.44 424.00 303.62 421.94Q304.79 419.94 306.42 418.75Q308.04 417.57 310.39 416.82Q312.73 416.07 315.73 416.07Q318.65 416.07 321.00 416.82Q323.34 417.57 324.97 418.75Q326.60 419.94 327.83 421.94Q329.01 424.00 329.66 426.07Q330.37 428.13 330.76 431.06Q331.15 434.00 331.22 436.56Q331.35 439.13 331.35 442.63Q331.35 445.13 331.22 447.19Q331.09 449.19 330.63 451.56Q330.24 453.94 329.59 455.75Q328.94 457.50 327.70 459.19Q326.47 460.88 324.90 462.00Q323.34 463.13 321.06 463.81Q318.78 464.50 315.99 464.50M305.96 437.50L305.96 442.63Q305.96 445.44 306.09 447.44Q306.29 449.44 306.87 451.75Q307.39 454.06 308.43 455.50Q309.48 457.00 311.30 458.00Q313.12 458.94 315.73 458.94L317.09 458.94Q318.92 458.94 320.35 458.25Q321.78 457.50 322.63 456.13Q323.54 454.81 324.12 453.31Q324.71 451.75 324.97 449.81Q325.29 447.81 325.36 446.19Q325.49 444.56 325.49 442.63L325.49 439.75Q325.49 437.81 325.42 436.69Q325.42 435.50 325.36 433.75Q325.29 431.94 325.10 430.94Q324.90 429.88 324.58 428.44Q324.25 427.00 323.73 426.13Q323.21 425.25 322.50 424.32Q321.71 423.38 320.80 422.88Q319.83 422.32 318.52 422.00Q317.29 421.69 315.73 421.69Q314.10 421.69 312.80 422.07Q311.56 422.38 310.58 423.00Q309.61 423.63 308.82 424.57Q308.11 425.44 307.59 426.57Q307.07 427.63 306.74 428.94Q306.42 430.19 306.29 431.63Q306.16 433.00 306.03 434.50Q305.96 435.94 305.96 437.50Z" fill="#000000"/><path d="M376.65 422.88Q374.17 424.13 374.17 426.50Q374.17 428.07 374.76 429.25Q375.35 430.44 376.71 431.44Q378.01 432.38 378.86 432.88Q379.77 433.38 381.59 434.25L381.73 434.25L381.86 434.25Q383.68 433.44 384.59 432.94Q385.50 432.44 386.80 431.50Q388.10 430.50 388.69 429.32Q389.28 428.07 389.28 426.50Q389.28 424.13 386.80 422.88Q384.39 421.63 381.73 421.63Q379.06 421.63 376.65 422.88M381.73 440.69Q371.90 445.63 371.90 451.50Q371.90 455.00 374.82 456.94Q377.56 458.88 381.73 458.88L383.03 458.88Q386.48 458.88 388.95 456.69Q391.49 454.50 391.49 451.50Q391.49 445.56 381.99 440.69L381.86 440.56L381.73 440.69M370.59 460.88Q366.10 457.25 366.10 451.50Q366.10 443.94 375.35 437.81L375.74 437.56L375.35 437.31Q368.31 433.19 368.31 426.50Q368.31 421.94 372.48 419.00Q376.58 416.00 381.73 416.00Q386.80 416.00 390.97 419.00Q395.14 422.00 395.14 426.50Q395.14 430.19 393.31 432.75Q391.42 435.25 388.10 437.31L387.71 437.56L388.10 437.81Q397.35 443.94 397.35 451.50Q397.35 456.44 393.57 460.25Q389.80 464.06 384.46 464.50L381.73 464.50Q375.02 464.50 370.59 460.88Z" fill="#000000"/><path d="M410.05 424.07Q409.21 423.19 409.21 422.13Q409.21 420.57 410.44 419.75Q416.37 416.00 423.73 416.00Q429.65 416.00 433.62 419.63Q437.66 423.19 437.66 429.00Q437.66 431.31 436.81 433.44Q435.96 435.63 434.86 437.00Q433.82 438.38 431.73 440.06Q429.65 441.75 428.54 442.50Q427.50 443.25 425.22 444.69Q422.75 446.25 421.64 447.06Q420.54 447.88 418.97 449.50Q417.41 451.06 416.69 453.06Q415.98 455.00 415.85 457.69L415.85 458.00L435.12 458.00Q436.35 458.00 437.20 458.88Q438.05 459.69 438.05 460.81Q438.05 461.94 437.14 462.81Q436.29 463.63 435.12 463.63L412.85 463.63Q411.68 463.63 410.77 462.81Q409.92 461.94 409.92 460.81L409.92 459.50Q409.92 454.63 410.58 452.50Q411.68 448.75 414.74 445.81Q417.80 442.81 422.23 439.94Q428.35 436.00 429.97 433.75Q431.80 431.50 431.80 429.00Q431.80 425.69 429.39 423.63Q427.11 421.63 423.73 421.63Q417.87 421.63 413.83 424.38Q413.11 424.88 412.14 424.88Q410.97 424.88 410.05 424.07Z" fill="#000000"/><path d="M460.65 422.88Q458.17 424.13 458.17 426.50Q458.17 428.07 458.76 429.25Q459.35 430.44 460.71 431.44Q462.01 432.38 462.86 432.88Q463.77 433.38 465.59 434.25L465.73 434.25L465.86 434.25Q467.68 433.44 468.59 432.94Q469.50 432.44 470.80 431.50Q472.10 430.50 472.69 429.32Q473.28 428.07 473.28 426.50Q473.28 424.13 470.80 422.88Q468.39 421.63 465.73 421.63Q463.06 421.63 460.65 422.88M465.73 440.69Q455.90 445.63 455.90 451.50Q455.90 455.00 458.82 456.94Q461.56 458.88 465.73 458.88L467.03 458.88Q470.48 458.88 472.95 456.69Q475.49 454.50 475.49 451.50Q475.49 445.56 465.99 440.69L465.86 440.56L465.73 440.69M454.59 460.88Q450.10 457.25 450.10 451.50Q450.10 443.94 459.35 437.81L459.74 437.56L459.35 437.31Q452.31 433.19 452.31 426.50Q452.31 421.94 456.48 419.00Q460.58 416.00 465.73 416.00Q470.80 416.00 474.97 419.00Q479.14 422.00 479.14 426.50Q479.14 430.19 477.31 432.75Q475.42 435.25 472.10 437.31L471.71 437.56L472.10 437.81Q481.35 443.94 481.35 451.50Q481.35 456.44 477.57 460.25Q473.80 464.06 468.46 464.50L465.73 464.50Q459.02 464.50 454.59 460.88Z" fill="#000000"/><path d="M496.66 460.44Q492.30 456.38 492.10 449.69L492.10 448.94Q492.10 441.13 496.59 434.00Q498.42 431.06 501.02 427.82Q503.56 424.50 505.32 422.57Q507.07 420.57 510.33 417.00Q511.05 416.19 512.35 416.19Q513.45 416.19 514.30 417.07Q515.15 417.88 515.15 419.00Q515.15 420.07 514.43 420.94Q507.07 428.94 503.62 433.75L503.17 434.38L503.88 434.25Q505.77 433.88 507.73 433.88Q514.82 433.88 519.05 438.13Q523.35 442.44 523.35 449.69Q523.35 456.25 518.92 460.38Q514.50 464.50 507.73 464.50Q500.95 464.50 496.66 460.44M500.56 442.25Q497.96 444.94 497.96 449.69Q497.96 453.94 500.69 456.44Q503.36 458.88 507.73 458.88Q512.02 458.88 514.69 456.38Q517.49 453.88 517.49 449.69Q517.49 444.81 514.95 442.19Q512.48 439.50 507.73 439.50Q503.10 439.50 500.56 442.25Z" fill="#000000"/><path d="M544.65 422.88Q542.17 424.13 542.17 426.50Q542.17 428.07 542.76 429.25Q543.35 430.44 544.71 431.44Q546.01 432.38 546.86 432.88Q547.77 433.38 549.59 434.25L549.73 434.25L549.86 434.25Q551.68 433.44 552.59 432.94Q553.50 432.44 554.80 431.50Q556.10 430.50 556.69 429.32Q557.28 428.07 557.28 426.50Q557.28 424.13 554.80 422.88Q552.39 421.63 549.73 421.63Q547.06 421.63 544.65 422.88M549.73 440.69Q539.90 445.63 539.90 451.50Q539.90 455.00 542.82 456.94Q545.56 458.88 549.73 458.88L551.03 458.88Q554.48 458.88 556.95 456.69Q559.49 454.50 559.49 451.50Q559.49 445.56 549.99 440.69L549.86 440.56L549.73 440.69M538.59 460.88Q534.10 457.25 534.10 451.50Q534.10 443.94 543.35 437.81L543.74 437.56L543.35 437.31Q536.31 433.19 536.31 426.50Q536.31 421.94 540.48 419.00Q544.58 416.00 549.73 416.00Q554.80 416.00 558.97 419.00Q563.14 422.00 563.14 426.50Q563.14 430.19 561.31 432.75Q559.42 435.25 556.10 437.31L555.71 437.56L556.10 437.81Q565.35 443.94 565.35 451.50Q565.35 456.44 561.57 460.25Q557.80 464.06 552.46 464.50L549.73 464.50Q543.02 464.50 538.59 460.88Z" fill="#000000"/><path d="M591.99 464.50L591.73 464.50Q587.88 464.44 585.02 463.25Q582.16 462.13 580.46 460.31Q578.77 458.44 577.79 455.50Q576.75 452.56 576.43 449.56Q576.10 446.63 576.10 442.63Q576.10 439.06 576.17 436.56Q576.30 434.00 576.69 431.06Q577.08 428.07 577.73 426.07Q578.44 424.00 579.62 421.94Q580.79 419.94 582.42 418.75Q584.04 417.57 586.39 416.82Q588.73 416.07 591.73 416.07Q594.65 416.07 597.00 416.82Q599.34 417.57 600.97 418.75Q602.60 419.94 603.83 421.94Q605.01 424.00 605.66 426.07Q606.37 428.13 606.76 431.06Q607.15 434.00 607.22 436.56Q607.35 439.13 607.35 442.63Q607.35 445.13 607.22 447.19Q607.09 449.19 606.63 451.56Q606.24 453.94 605.59 455.75Q604.94 457.50 603.70 459.19Q602.47 460.88 600.90 462.00Q599.34 463.13 597.06 463.81Q594.78 464.50 591.99 464.50M581.96 437.50L581.96 442.63Q581.96 445.44 582.09 447.44Q582.29 449.44 582.87 451.75Q583.39 454.06 584.43 455.50Q585.48 457.00 587.30 458.00Q589.12 458.94 591.73 458.94L593.09 458.94Q594.92 458.94 596.35 458.25Q597.78 457.50 598.63 456.13Q599.54 454.81 600.12 453.31Q600.71 451.75 600.97 449.81Q601.29 447.81 601.36 446.19Q601.49 444.56 601.49 442.63L601.49 439.75Q601.49 437.81 601.42 436.69Q601.42 435.50 601.36 433.75Q601.29 431.94 601.10 430.94Q600.90 429.88 600.58 428.44Q600.25 427.00 599.73 426.13Q599.21 425.25 598.50 424.32Q597.71 423.38 596.80 422.88Q595.83 422.32 594.52 422.00Q593.29 421.69 591.73 421.69Q590.10 421.69 588.80 422.07Q587.56 422.38 586.58 423.00Q585.61 423.63 584.82 424.57Q584.11 425.44 583.59 426.57Q583.07 427.63 582.74 428.94Q582.42 430.19 582.29 431.63Q582.16 433.00 582.03 434.50Q581.96 435.94 581.96 437.50Z" fill="#000000"/></svg></g></svg>