<svg data-cached="true" xmlns="http://www.w3.org/2000/svg" width="753" height="531" viewBox="0 0 753 531" preserveAspectRatio="xMidYMid meet"><svg id="__background" x="0" y="0" width="753" height="531" preserveAspectRatio="xMidYMid meet"><rect x="0" y="0" width="753" height="531" fill="#ffffff" stroke="none" stroke-width="0px"/></svg><g id="__padding" transform="translate(26 26)"><svg id="data" x="0" y="0" width="701" height="479" viewBox="0 0 695 473" preserveAspectRatio="xMinYMid meet"><path d="M0 0L0 473L695 473L695 0ZM3 3L3 470L692 470L692 3Z" fill="#ffffff" fill-rule="evenodd"/><path fill="#000000" d="M62 440 L68 440 L68 8 L62 8 Z"/><path fill="#000000" d="M74 440 L80 440 L80 8 L74 8 Z"/><path fill="#000000" d="M86 408 L98 408 L98 8 L86 8 Z"/><path fill="#000000" d="M104 408 L122 408 L122 8 L104 8 Z"/><path fill="#000000" d="M140 408 L146 408 L146 8 L140 8 Z"/><path fill="#000000" d="M152 408 L164 408 L164 8 L152 8 Z"/><path fill="#000000" d="M182 408 L188 408 L188 8 L182 8 Z"/><path fill="#000000" d="M200 408 L206 408 L206 8 L200 8 Z"/><path fill="#000000" d="M218 408 L230 408 L230 8 L218 8 Z"/><path fill="#000000" d="M236 408 L248 408 L248 8 L236 8 Z"/><path fill="#000000" d="M272 408 L278 408 L278 8 L272 8 Z"/><path fill="#000000" d="M284 408 L290 408 L290 8 L284 8 Z"/><path fill="#000000" d="M296 408 L314 408 L314 8 L296 8 Z"/><path fill="#000000" d="M320 408 L332 408 L332 8 L320 8 Z"/><path fill="#000000" d="M338 440 L344 440 L344 8 L338 8 Z"/><path fill="#000000" d="M350 440 L356 440 L356 8 L350 8 Z"/><path fill="#000000" d="M362 408 L368 408 L368 8 L362 8 Z"/><path fill="#000000" d="M374 408 L380 408 L380 8 L374 8 Z"/><path fill="#000000" d="M404 408 L410 408 L410 8 L404 8 Z"/><path fill="#000000" d="M428 408 L434 408 L434 8 L428 8 Z"/><path fill="#000000" d="M446 408 L452 408 L452 8 L446 8 Z"/><path fill="#000000" d="M464 408 L482 408 L482 8 L464 8 Z"/><path fill="#000000" d="M488 408 L506 408 L506 8 L488 8 Z"/><path fill="#000000" d="M518 408 L524 408 L524 8 L518 8 Z"/><path fill="#000000" d="M530 408 L536 408 L536 8 L530 8 Z"/><path fill="#000000" d="M542 408 L560 408 L560 8 L542 8 Z"/><path fill="#000000" d="M572 408 L584 408 L584 8 L572 8 Z"/><path fill="#000000" d="M596 408 L608 408 L608 8 L596 8 Z"/><path fill="#000000" d="M614 440 L620 440 L620 8 L614 8 Z"/><path fill="#000000" d="M626 440 L632 440 L632 8 L626 8 Z"/><path d="M7.47 462.13Q6.10 461.13 6.10 459.63Q6.10 458.44 6.95 457.63Q7.86 456.75 9.03 456.75Q9.42 456.75 10.14 457.00Q14.30 458.81 18.86 458.81Q23.81 458.81 27.19 456.44Q30.64 454.00 30.90 449.38L30.90 448.75Q30.90 445.56 28.82 443.31Q26.87 441.13 24.00 440.19Q21.20 439.31 17.75 439.31Q16.65 439.31 15.80 438.50Q14.95 437.63 14.95 436.44Q14.95 435.31 15.54 434.69L27.52 421.94L9.23 421.94Q8.05 421.94 7.14 421.13Q6.30 420.25 6.30 419.07Q6.30 417.88 7.14 417.07Q7.99 416.25 9.23 416.25L32.21 416.25Q33.38 416.25 34.22 417.13Q35.14 417.94 35.14 419.07L35.14 421.32Q35.14 422.32 34.22 423.19L23.74 434.25L24.26 434.38Q29.80 435.75 33.31 439.44Q36.76 443.13 36.76 448.69L36.76 449.69Q36.44 456.50 31.23 460.50Q26.15 464.50 18.86 464.50Q17.04 464.50 15.22 464.31Q13.39 464.12 11.11 463.69Q8.84 463.19 7.47 462.13Z" fill="#000000"/><path d="M100.65 422.88Q98.17 424.13 98.17 426.50Q98.17 428.07 98.76 429.25Q99.35 430.44 100.71 431.44Q102.01 432.38 102.86 432.88Q103.77 433.38 105.59 434.25L105.73 434.25L105.86 434.25Q107.68 433.44 108.59 432.94Q109.50 432.44 110.80 431.50Q112.10 430.50 112.69 429.32Q113.28 428.07 113.28 426.50Q113.28 424.13 110.80 422.88Q108.39 421.63 105.73 421.63Q103.06 421.63 100.65 422.88M105.73 440.69Q95.90 445.63 95.90 451.50Q95.90 455.00 98.82 456.94Q101.56 458.88 105.73 458.88L107.03 458.88Q110.48 458.88 112.95 456.69Q115.49 454.50 115.49 451.50Q115.49 445.56 105.99 440.69L105.86 440.56L105.73 440.69M94.59 460.88Q90.10 457.25 90.10 451.50Q90.10 443.94 99.35 437.81L99.74 437.56L99.35 437.31Q92.31 433.19 92.31 426.50Q92.31 421.94 96.48 419.00Q100.58 416.00 105.73 416.00Q110.80 416.00 114.97 419.00Q119.14 422.00 119.14 426.50Q119.14 430.19 117.31 432.75Q115.42 435.25 112.10 437.31L111.71 437.56L112.10 437.81Q121.35 443.94 121.35 451.50Q121.35 456.44 117.57 460.25Q113.80 464.06 108.46 464.50L105.73 464.50Q99.02 464.50 94.59 460.88Z" fill="#000000"/><path d="M140.82 424.69Q137.96 427.69 137.96 431.88Q137.96 435.94 140.69 438.50Q143.30 441.00 147.73 441.00Q155.47 441.00 156.84 436.44Q157.49 434.38 157.49 431.88Q157.49 427.19 154.76 424.44Q152.09 421.63 147.73 421.63Q143.62 421.63 140.82 424.69M136.53 442.38Q132.10 438.19 132.10 431.88Q132.10 425.38 136.79 420.69Q141.35 416.00 147.73 416.00Q154.30 416.00 158.79 420.38Q163.35 424.75 163.35 431.88Q163.35 436.31 161.98 439.88Q160.61 443.44 158.14 447.56Q152.74 456.63 144.93 463.56Q144.08 464.31 143.10 464.31Q142.00 464.31 141.15 463.50Q140.30 462.69 140.30 461.50Q140.30 460.31 141.22 459.44Q147.40 453.75 151.83 446.88L152.15 446.25L151.50 446.38Q149.81 446.63 147.73 446.63Q140.82 446.63 136.53 442.38Z" fill="#000000"/><path d="M184.65 422.88Q182.17 424.13 182.17 426.50Q182.17 428.07 182.76 429.25Q183.35 430.44 184.71 431.44Q186.01 432.38 186.86 432.88Q187.77 433.38 189.59 434.25L189.73 434.25L189.86 434.25Q191.68 433.44 192.59 432.94Q193.50 432.44 194.80 431.50Q196.10 430.50 196.69 429.32Q197.28 428.07 197.28 426.50Q197.28 424.13 194.80 422.88Q192.39 421.63 189.73 421.63Q187.06 421.63 184.65 422.88M189.73 440.69Q179.90 445.63 179.90 451.50Q179.90 455.00 182.82 456.94Q185.56 458.88 189.73 458.88L191.03 458.88Q194.48 458.88 196.95 456.69Q199.49 454.50 199.49 451.50Q199.49 445.56 189.99 440.69L189.86 440.56L189.73 440.69M178.59 460.88Q174.10 457.25 174.10 451.50Q174.10 443.94 183.35 437.81L183.74 437.56L183.35 437.31Q176.31 433.19 176.31 426.50Q176.31 421.94 180.48 419.00Q184.58 416.00 189.73 416.00Q194.80 416.00 198.97 419.00Q203.14 422.00 203.14 426.50Q203.14 430.19 201.31 432.75Q199.42 435.25 196.10 437.31L195.71 437.56L196.10 437.81Q205.35 443.94 205.35 451.50Q205.35 456.44 201.57 460.25Q197.80 464.06 192.46 464.50L189.73 464.50Q183.02 464.50 178.59 460.88Z" fill="#000000"/><path d="M218.05 424.07Q217.21 423.19 217.21 422.13Q217.21 420.57 218.44 419.75Q224.37 416.00 231.73 416.00Q237.65 416.00 241.62 419.63Q245.66 423.19 245.66 429.00Q245.66 431.31 244.81 433.44Q243.96 435.63 242.86 437.00Q241.82 438.38 239.73 440.06Q237.65 441.75 236.54 442.50Q235.50 443.25 233.22 444.69Q230.75 446.25 229.64 447.06Q228.54 447.88 226.97 449.50Q225.41 451.06 224.69 453.06Q223.98 455.00 223.85 457.69L223.85 458.00L243.12 458.00Q244.35 458.00 245.20 458.88Q246.05 459.69 246.05 460.81Q246.05 461.94 245.14 462.81Q244.29 463.63 243.12 463.63L220.85 463.63Q219.68 463.63 218.77 462.81Q217.92 461.94 217.92 460.81L217.92 459.50Q217.92 454.63 218.58 452.50Q219.68 448.75 222.74 445.81Q225.80 442.81 230.23 439.94Q236.35 436.00 237.97 433.75Q239.80 431.50 239.80 429.00Q239.80 425.69 237.39 423.63Q235.11 421.63 231.73 421.63Q225.87 421.63 221.83 424.38Q221.11 424.88 220.14 424.88Q218.97 424.88 218.05 424.07Z" fill="#000000"/><path d="M262.66 460.44Q258.30 456.38 258.10 449.69L258.10 448.94Q258.10 441.13 262.59 434.00Q264.42 431.06 267.02 427.82Q269.56 424.50 271.32 422.57Q273.07 420.57 276.33 417.00Q277.05 416.19 278.35 416.19Q279.45 416.19 280.30 417.07Q281.15 417.88 281.15 419.00Q281.15 420.07 280.43 420.94Q273.07 428.94 269.62 433.75L269.17 434.38L269.88 434.25Q271.77 433.88 273.73 433.88Q280.82 433.88 285.05 438.13Q289.35 442.44 289.35 449.69Q289.35 456.25 284.92 460.38Q280.50 464.50 273.73 464.50Q266.95 464.50 262.66 460.44M266.56 442.25Q263.96 444.94 263.96 449.69Q263.96 453.94 266.69 456.44Q269.36 458.88 273.73 458.88Q278.02 458.88 280.69 456.38Q283.49 453.88 283.49 449.69Q283.49 444.81 280.95 442.19Q278.48 439.50 273.73 439.50Q269.10 439.50 266.56 442.25Z" fill="#000000"/><path d="M300.95 421.13Q300.10 420.25 300.10 419.07Q300.10 417.88 300.95 417.07Q301.79 416.25 303.03 416.25L328.42 416.25Q329.66 416.25 330.50 417.13Q331.35 417.94 331.35 419.07Q331.35 423.82 327.51 429.38Q326.34 431.13 322.95 435.19Q319.57 439.31 318.13 441.88Q313.90 449.38 313.90 461.44Q313.90 462.63 313.06 463.50Q312.21 464.31 311.10 464.31Q310.00 464.31 309.15 463.50Q308.30 462.69 308.30 461.44Q308.30 447.81 313.25 439.00Q314.75 436.44 318.13 432.13Q321.58 427.75 322.69 426.13Q324.25 423.63 324.84 422.38L324.97 421.94L303.03 421.94Q301.86 421.94 300.95 421.13Z" fill="#000000"/><path d="M370.66 460.44Q366.30 456.38 366.10 449.69L366.10 448.94Q366.10 441.13 370.59 434.00Q372.42 431.06 375.02 427.82Q377.56 424.50 379.32 422.57Q381.07 420.57 384.33 417.00Q385.05 416.19 386.35 416.19Q387.45 416.19 388.30 417.07Q389.15 417.88 389.15 419.00Q389.15 420.07 388.43 420.94Q381.07 428.94 377.62 433.75L377.17 434.38L377.88 434.25Q379.77 433.88 381.73 433.88Q388.82 433.88 393.05 438.13Q397.35 442.44 397.35 449.69Q397.35 456.25 392.92 460.38Q388.50 464.50 381.73 464.50Q374.95 464.50 370.66 460.44M374.56 442.25Q371.96 444.94 371.96 449.69Q371.96 453.94 374.69 456.44Q377.36 458.88 381.73 458.88Q386.02 458.88 388.69 456.38Q391.49 453.88 391.49 449.69Q391.49 444.81 388.95 442.19Q386.48 439.50 381.73 439.50Q377.10 439.50 374.56 442.25Z" fill="#000000"/><path d="M408.95 421.13Q408.10 420.25 408.10 419.07Q408.10 417.88 408.95 417.07Q409.79 416.25 411.03 416.25L436.42 416.25Q437.66 416.25 438.50 417.13Q439.35 417.94 439.35 419.07Q439.35 423.82 435.51 429.38Q434.34 431.13 430.95 435.19Q427.57 439.31 426.13 441.88Q421.90 449.38 421.90 461.44Q421.90 462.63 421.06 463.50Q420.21 464.31 419.10 464.31Q418.00 464.31 417.15 463.50Q416.30 462.69 416.30 461.44Q416.30 447.81 421.25 439.00Q422.75 436.44 426.13 432.13Q429.58 427.75 430.69 426.13Q432.25 423.63 432.84 422.38L432.97 421.94L411.03 421.94Q409.86 421.94 408.95 421.13Z" fill="#000000"/><path d="M452.64 463.69Q451.79 462.88 451.79 461.69Q451.79 460.44 452.64 459.63Q453.55 458.81 454.72 458.81Q467.87 458.81 471.71 451.75Q472.89 449.63 472.89 447.69Q472.89 443.13 470.67 440.81Q467.74 437.50 460.39 437.50Q458.37 437.50 456.29 437.69L456.03 437.69Q454.85 437.69 453.94 436.94Q453.10 436.13 453.10 435.00L453.10 434.81L454.01 418.88Q454.14 417.75 454.92 417.00Q455.76 416.25 456.94 416.25L475.42 416.25Q476.66 416.25 477.51 417.13Q478.35 417.94 478.35 419.07Q478.35 420.19 477.44 421.07Q476.60 421.94 475.42 421.94L459.67 421.94L459.15 431.75L460.39 431.75Q468.65 431.75 473.67 435.81Q478.75 439.81 478.75 447.69Q478.75 451.00 477.25 453.88Q475.69 456.81 473.34 458.88Q467.09 464.50 454.72 464.50Q453.55 464.50 452.64 463.69M456.22 437.69Q456.22 437.69 456.29 437.69Q456.29 437.69 456.22 437.69Z" fill="#000000"/><path d="M507.99 464.50L507.73 464.50Q503.88 464.44 501.02 463.25Q498.16 462.13 496.46 460.31Q494.77 458.44 493.79 455.50Q492.75 452.56 492.43 449.56Q492.10 446.63 492.10 442.63Q492.10 439.06 492.17 436.56Q492.30 434.00 492.69 431.06Q493.08 428.07 493.73 426.07Q494.44 424.00 495.62 421.94Q496.79 419.94 498.42 418.75Q500.04 417.57 502.39 416.82Q504.73 416.07 507.73 416.07Q510.65 416.07 513.00 416.82Q515.34 417.57 516.97 418.75Q518.60 419.94 519.83 421.94Q521.01 424.00 521.66 426.07Q522.37 428.13 522.76 431.06Q523.15 434.00 523.22 436.56Q523.35 439.13 523.35 442.63Q523.35 445.13 523.22 447.19Q523.09 449.19 522.63 451.56Q522.24 453.94 521.59 455.75Q520.94 457.50 519.70 459.19Q518.47 460.88 516.90 462.00Q515.34 463.13 513.06 463.81Q510.78 464.50 507.99 464.50M497.96 437.50L497.96 442.63Q497.96 445.44 498.09 447.44Q498.29 449.44 498.87 451.75Q499.39 454.06 500.43 455.50Q501.48 457.00 503.30 458.00Q505.12 458.94 507.73 458.94L509.09 458.94Q510.92 458.94 512.35 458.25Q513.78 457.50 514.63 456.13Q515.54 454.81 516.12 453.31Q516.71 451.75 516.97 449.81Q517.29 447.81 517.36 446.19Q517.49 444.56 517.49 442.63L517.49 439.75Q517.49 437.81 517.42 436.69Q517.42 435.50 517.36 433.75Q517.29 431.94 517.10 430.94Q516.90 429.88 516.58 428.44Q516.25 427.00 515.73 426.13Q515.21 425.25 514.50 424.32Q513.71 423.38 512.80 422.88Q511.83 422.32 510.52 422.00Q509.29 421.69 507.73 421.69Q506.10 421.69 504.80 422.07Q503.56 422.38 502.58 423.00Q501.61 423.63 500.82 424.57Q500.11 425.44 499.59 426.57Q499.07 427.63 498.74 428.94Q498.42 430.19 498.29 431.63Q498.16 433.00 498.03 434.50Q497.96 435.94 497.96 437.50Z" fill="#000000"/><path d="M534.95 452.63Q534.10 451.81 534.10 450.63L534.10 447.94Q534.10 447.44 534.43 446.75L548.29 417.82Q548.55 417.13 549.27 416.69Q549.99 416.19 550.77 416.19Q551.94 416.19 552.78 417.07Q553.63 417.88 553.63 419.00Q553.63 419.63 553.31 420.19L540.29 447.81L552.98 447.81L552.98 440.25Q552.98 439.13 553.83 438.31Q554.67 437.44 555.78 437.44Q556.89 437.44 557.73 438.31Q558.64 439.13 558.64 440.25L558.64 447.81L562.42 447.81Q563.66 447.81 564.50 448.69Q565.35 449.50 565.35 450.63Q565.35 451.75 564.44 452.63Q563.59 453.44 562.42 453.44L558.64 453.44L558.64 461.50Q558.64 462.63 557.73 463.44Q556.89 464.31 555.78 464.31Q554.67 464.31 553.83 463.50Q552.98 462.63 552.98 461.50L552.98 453.44L537.03 453.44Q535.86 453.44 534.95 452.63Z" fill="#000000"/><path d="M578.97 430.63Q578.12 429.75 578.12 428.63Q578.12 427.32 578.97 426.69L590.88 416.88Q591.73 416.19 592.77 416.19L594.85 416.19Q596.02 416.19 596.87 417.07Q597.78 417.88 597.78 419.00L597.78 461.50Q597.78 462.63 596.87 463.50Q596.02 464.31 594.85 464.31Q593.68 464.31 592.77 463.50Q591.92 462.69 591.92 461.50L591.92 423.44L583.00 430.75Q582.16 431.44 581.05 431.44Q579.81 431.44 578.97 430.63Z" fill="#000000"/></svg></g></svg>