<svg data-cached="true" xmlns="http://www.w3.org/2000/svg" width="753" height="531" viewBox="0 0 753 531" preserveAspectRatio="xMidYMid meet"><svg id="__background" x="0" y="0" width="753" height="531" preserveAspectRatio="xMidYMid meet"><rect x="0" y="0" width="753" height="531" fill="#ffffff" stroke="none" stroke-width="0px"/></svg><g id="__padding" transform="translate(26 26)"><svg id="data" x="0" y="0" width="701" height="479" viewBox="0 0 695 473" preserveAspectRatio="xMinYMid meet"><path d="M0 0L0 473L695 473L695 0ZM3 3L3 470L692 470L692 3Z" fill="#ffffff" fill-rule="evenodd"/><path fill="#000000" d="M62 440 L68 440 L68 8 L62 8 Z"/><path fill="#000000" d="M74 440 L80 440 L80 8 L74 8 Z"/><path fill="#000000" d="M98 408 L110 408 L110 8 L98 8 Z"/><path fill="#000000" d="M116 408 L122 408 L122 8 L116 8 Z"/><path fill="#000000" d="M128 408 L134 408 L134 8 L128 8 Z"/><path fill="#000000" d="M140 408 L164 408 L164 8 L140 8 Z"/><path fill="#000000" d="M170 408 L176 408 L176 8 L170 8 Z"/><path fill="#000000" d="M200 408 L206 408 L206 8 L200 8 Z"/><path fill="#000000" d="M218 408 L236 408 L236 8 L218 8 Z"/><path fill="#000000" d="M242 408 L248 408 L248 8 L242 8 Z"/><path fill="#000000" d="M260 408 L266 408 L266 8 L260 8 Z"/><path fill="#000000" d="M284 408 L290 408 L290 8 L284 8 Z"/><path fill="#000000" d="M296 408 L302 408 L302 8 L296 8 Z"/><path fill="#000000" d="M320 408 L332 408 L332 8 L320 8 Z"/><path fill="#000000" d="M338 440 L344 440 L344 8 L338 8 Z"/><path fill="#000000" d="M350 440 L356 440 L356 8 L350 8 Z"/><path fill="#000000" d="M362 408 L374 408 L374 8 L362 8 Z"/><path fill="#000000" d="M386 408 L398 408 L398 8 L386 8 Z"/><path fill="#000000" d="M404 408 L422 408 L422 8 L404 8 Z"/><path fill="#000000" d="M434 408 L440 408 L440 8 L434 8 Z"/><path fill="#000000" d="M446 408 L452 408 L452 8 L446 8 Z"/><path fill="#000000" d="M464 408 L470 408 L470 8 L464 8 Z"/><path fill="#000000" d="M488 408 L494 408 L494 8 L488 8 Z"/><path fill="#000000" d="M500 408 L518 408 L518 8 L500 8 Z"/><path fill="#000000" d="M530 408 L536 408 L536 8 L530 8 Z"/><path fill="#000000" d="M548 408 L554 408 L554 8 L548 8 Z"/><path fill="#000000" d="M572 408 L578 408 L578 8 L572 8 Z"/><path fill="#000000" d="M590 408 L596 408 L596 8 L590 8 Z"/><path fill="#000000" d="M614 440 L620 440 L620 8 L614 8 Z"/><path fill="#000000" d="M626 440 L632 440 L632 8 L626 8 Z"/><path d="M7.47 462.13Q6.10 461.13 6.10 459.63Q6.10 458.44 6.95 457.63Q7.86 456.75 9.03 456.75Q9.42 456.75 10.14 457.00Q14.30 458.81 18.86 458.81Q23.81 458.81 27.19 456.44Q30.64 454.00 30.90 449.38L30.90 448.75Q30.90 445.56 28.82 443.31Q26.87 441.13 24.00 440.19Q21.20 439.31 17.75 439.31Q16.65 439.31 15.80 438.50Q14.95 437.63 14.95 436.44Q14.95 435.31 15.54 434.69L27.52 421.94L9.23 421.94Q8.05 421.94 7.14 421.13Q6.30 420.25 6.30 419.07Q6.30 417.88 7.14 417.07Q7.99 416.25 9.23 416.25L32.21 416.25Q33.38 416.25 34.22 417.13Q35.14 417.94 35.14 419.07L35.14 421.32Q35.14 422.32 34.22 423.19L23.74 434.25L24.26 434.38Q29.80 435.75 33.31 439.44Q36.76 443.13 36.76 448.69L36.76 449.69Q36.44 456.50 31.23 460.50Q26.15 464.50 18.86 464.50Q17.04 464.50 15.22 464.31Q13.39 464.12 11.11 463.69Q8.84 463.19 7.47 462.13Z" fill="#000000"/><path d="M105.99 464.50L105.73 464.50Q101.88 464.44 99.02 463.25Q96.16 462.13 94.46 460.31Q92.77 458.44 91.79 455.50Q90.75 452.56 90.43 449.56Q90.10 446.63 90.10 442.63Q90.10 439.06 90.17 436.56Q90.30 434.00 90.69 431.06Q91.08 428.07 91.73 426.07Q92.44 424.00 93.62 421.94Q94.79 419.94 96.42 418.75Q98.04 417.57 100.39 416.82Q102.73 416.07 105.73 416.07Q108.65 416.07 111.00 416.82Q113.34 417.57 114.97 418.75Q116.60 419.94 117.83 421.94Q119.01 424.00 119.66 426.07Q120.37 428.13 120.76 431.06Q121.15 434.00 121.22 436.56Q121.35 439.13 121.35 442.63Q121.35 445.13 121.22 447.19Q121.09 449.19 120.63 451.56Q120.24 453.94 119.59 455.75Q118.94 457.50 117.70 459.19Q116.47 460.88 114.90 462.00Q113.34 463.13 111.06 463.81Q108.78 464.50 105.99 464.50M95.96 437.50L95.96 442.63Q95.96 445.44 96.09 447.44Q96.29 449.44 96.87 451.75Q97.39 454.06 98.43 455.50Q99.48 457.00 101.30 458.00Q103.12 458.94 105.73 458.94L107.09 458.94Q108.92 458.94 110.35 458.25Q111.78 457.50 112.63 456.13Q113.54 454.81 114.12 453.31Q114.71 451.75 114.97 449.81Q115.29 447.81 115.36 446.19Q115.49 444.56 115.49 442.63L115.49 439.75Q115.49 437.81 115.42 436.69Q115.42 435.50 115.36 433.75Q115.29 431.94 115.10 430.94Q114.90 429.88 114.58 428.44Q114.25 427.00 113.73 426.13Q113.21 425.25 112.50 424.32Q111.71 423.38 110.80 422.88Q109.83 422.32 108.52 422.00Q107.29 421.69 105.73 421.69Q104.10 421.69 102.80 422.07Q101.56 422.38 100.58 423.00Q99.61 423.63 98.82 424.57Q98.11 425.44 97.59 426.57Q97.07 427.63 96.74 428.94Q96.42 430.19 96.29 431.63Q96.16 433.00 96.03 434.50Q95.96 435.94 95.96 437.50Z" fill="#000000"/><path d="M136.66 460.44Q132.30 456.38 132.10 449.69L132.10 448.94Q132.10 441.13 136.59 434.00Q138.42 431.06 141.02 427.82Q143.56 424.50 145.32 422.57Q147.07 420.57 150.33 417.00Q151.05 416.19 152.35 416.19Q153.45 416.19 154.30 417.07Q155.15 417.88 155.15 419.00Q155.15 420.07 154.43 420.94Q147.07 428.94 143.62 433.75L143.17 434.38L143.88 434.25Q145.77 433.88 147.73 433.88Q154.82 433.88 159.05 438.13Q163.35 442.44 163.35 449.69Q163.35 456.25 158.92 460.38Q154.50 464.50 147.73 464.50Q140.95 464.50 136.66 460.44M140.56 442.25Q137.96 444.94 137.96 449.69Q137.96 453.94 140.69 456.44Q143.36 458.88 147.73 458.88Q152.02 458.88 154.69 456.38Q157.49 453.88 157.49 449.69Q157.49 444.81 154.95 442.19Q152.48 439.50 147.73 439.50Q143.10 439.50 140.56 442.25Z" fill="#000000"/><path d="M175.47 462.13Q174.10 461.13 174.10 459.63Q174.10 458.44 174.95 457.63Q175.86 456.75 177.03 456.75Q177.42 456.75 178.14 457.00Q182.30 458.81 186.86 458.81Q191.81 458.81 195.19 456.44Q198.64 454.00 198.90 449.38L198.90 448.75Q198.90 445.56 196.82 443.31Q194.87 441.13 192.00 440.19Q189.20 439.31 185.75 439.31Q184.65 439.31 183.80 438.50Q182.95 437.63 182.95 436.44Q182.95 435.31 183.54 434.69L195.52 421.94L177.23 421.94Q176.05 421.94 175.14 421.13Q174.30 420.25 174.30 419.07Q174.30 417.88 175.14 417.07Q175.99 416.25 177.23 416.25L200.21 416.25Q201.38 416.25 202.22 417.13Q203.14 417.94 203.14 419.07L203.14 421.32Q203.14 422.32 202.22 423.19L191.74 434.25L192.26 434.38Q197.80 435.75 201.31 439.44Q204.76 443.13 204.76 448.69L204.76 449.69Q204.44 456.50 199.23 460.50Q194.15 464.50 186.86 464.50Q185.04 464.50 183.22 464.31Q181.39 464.12 179.11 463.69Q176.84 463.19 175.47 462.13Z" fill="#000000"/><path d="M216.95 452.63Q216.10 451.81 216.10 450.63L216.10 447.94Q216.10 447.44 216.43 446.75L230.29 417.82Q230.55 417.13 231.27 416.69Q231.99 416.19 232.77 416.19Q233.94 416.19 234.78 417.07Q235.63 417.88 235.63 419.00Q235.63 419.63 235.31 420.19L222.29 447.81L234.98 447.81L234.98 440.25Q234.98 439.13 235.83 438.31Q236.67 437.44 237.78 437.44Q238.89 437.44 239.73 438.31Q240.64 439.13 240.64 440.25L240.64 447.81L244.42 447.81Q245.66 447.81 246.50 448.69Q247.35 449.50 247.35 450.63Q247.35 451.75 246.44 452.63Q245.59 453.44 244.42 453.44L240.64 453.44L240.64 461.50Q240.64 462.63 239.73 463.44Q238.89 464.31 237.78 464.31Q236.67 464.31 235.83 463.50Q234.98 462.63 234.98 461.50L234.98 453.44L219.03 453.44Q217.86 453.44 216.95 452.63Z" fill="#000000"/><path d="M258.95 421.13Q258.10 420.25 258.10 419.07Q258.10 417.88 258.95 417.07Q259.79 416.25 261.03 416.25L286.42 416.25Q287.66 416.25 288.50 417.13Q289.35 417.94 289.35 419.07Q289.35 423.82 285.51 429.38Q284.34 431.13 280.95 435.19Q277.57 439.31 276.13 441.88Q271.90 449.38 271.90 461.44Q271.90 462.63 271.06 463.50Q270.21 464.31 269.10 464.31Q268.00 464.31 267.15 463.50Q266.30 462.69 266.30 461.44Q266.30 447.81 271.25 439.00Q272.75 436.44 276.13 432.13Q279.58 427.75 280.69 426.13Q282.25 423.63 282.84 422.38L282.97 421.94L261.03 421.94Q259.86 421.94 258.95 421.13Z" fill="#000000"/><path d="M300.95 452.63Q300.10 451.81 300.10 450.63L300.10 447.94Q300.10 447.44 300.43 446.75L314.29 417.82Q314.55 417.13 315.27 416.69Q315.99 416.19 316.77 416.19Q317.94 416.19 318.78 417.07Q319.63 417.88 319.63 419.00Q319.63 419.63 319.31 420.19L306.29 447.81L318.98 447.81L318.98 440.25Q318.98 439.13 319.83 438.31Q320.67 437.44 321.78 437.44Q322.89 437.44 323.73 438.31Q324.64 439.13 324.64 440.25L324.64 447.81L328.42 447.81Q329.66 447.81 330.50 448.69Q331.35 449.50 331.35 450.63Q331.35 451.75 330.44 452.63Q329.59 453.44 328.42 453.44L324.64 453.44L324.64 461.50Q324.64 462.63 323.73 463.44Q322.89 464.31 321.78 464.31Q320.67 464.31 319.83 463.50Q318.98 462.63 318.98 461.50L318.98 453.44L303.03 453.44Q301.86 453.44 300.95 452.63Z" fill="#000000"/><path d="M368.97 430.63Q368.12 429.75 368.12 428.63Q368.12 427.32 368.97 426.69L380.88 416.88Q381.73 416.19 382.77 416.19L384.85 416.19Q386.02 416.19 386.87 417.07Q387.78 417.88 387.78 419.00L387.78 461.50Q387.78 462.63 386.87 463.50Q386.02 464.31 384.85 464.31Q383.68 464.31 382.77 463.50Q381.92 462.69 381.92 461.50L381.92 423.44L373.00 430.75Q372.16 431.44 371.05 431.44Q369.81 431.44 368.97 430.63Z" fill="#000000"/><path d="M423.99 464.50L423.73 464.50Q419.88 464.44 417.02 463.25Q414.16 462.13 412.46 460.31Q410.77 458.44 409.79 455.50Q408.75 452.56 408.43 449.56Q408.10 446.63 408.10 442.63Q408.10 439.06 408.17 436.56Q408.30 434.00 408.69 431.06Q409.08 428.07 409.73 426.07Q410.44 424.00 411.62 421.94Q412.79 419.94 414.42 418.75Q416.04 417.57 418.39 416.82Q420.73 416.07 423.73 416.07Q426.65 416.07 429.00 416.82Q431.34 417.57 432.97 418.75Q434.60 419.94 435.83 421.94Q437.01 424.00 437.66 426.07Q438.37 428.13 438.76 431.06Q439.15 434.00 439.22 436.56Q439.35 439.13 439.35 442.63Q439.35 445.13 439.22 447.19Q439.09 449.19 438.63 451.56Q438.24 453.94 437.59 455.75Q436.94 457.50 435.70 459.19Q434.47 460.88 432.90 462.00Q431.34 463.13 429.06 463.81Q426.78 464.50 423.99 464.50M413.96 437.50L413.96 442.63Q413.96 445.44 414.09 447.44Q414.29 449.44 414.87 451.75Q415.39 454.06 416.43 455.50Q417.48 457.00 419.30 458.00Q421.12 458.94 423.73 458.94L425.09 458.94Q426.92 458.94 428.35 458.25Q429.78 457.50 430.63 456.13Q431.54 454.81 432.12 453.31Q432.71 451.75 432.97 449.81Q433.29 447.81 433.36 446.19Q433.49 444.56 433.49 442.63L433.49 439.75Q433.49 437.81 433.42 436.69Q433.42 435.50 433.36 433.75Q433.29 431.94 433.10 430.94Q432.90 429.88 432.58 428.44Q432.25 427.00 431.73 426.13Q431.21 425.25 430.50 424.32Q429.71 423.38 428.80 422.88Q427.83 422.32 426.52 422.00Q425.29 421.69 423.73 421.69Q422.10 421.69 420.80 422.07Q419.56 422.38 418.58 423.00Q417.61 423.63 416.82 424.57Q416.11 425.44 415.59 426.57Q415.07 427.63 414.74 428.94Q414.42 430.19 414.29 431.63Q414.16 433.00 414.03 434.50Q413.96 435.94 413.96 437.50Z" fill="#000000"/><path d="M460.65 422.88Q458.17 424.13 458.17 426.50Q458.17 428.07 458.76 429.25Q459.35 430.44 460.71 431.44Q462.01 432.38 462.86 432.88Q463.77 433.38 465.59 434.25L465.73 434.25L465.86 434.25Q467.68 433.44 468.59 432.94Q469.50 432.44 470.80 431.50Q472.10 430.50 472.69 429.32Q473.28 428.07 473.28 426.50Q473.28 424.13 470.80 422.88Q468.39 421.63 465.73 421.63Q463.06 421.63 460.65 422.88M465.73 440.69Q455.90 445.63 455.90 451.50Q455.90 455.00 458.82 456.94Q461.56 458.88 465.73 458.88L467.03 458.88Q470.48 458.88 472.95 456.69Q475.49 454.50 475.49 451.50Q475.49 445.56 465.99 440.69L465.86 440.56L465.73 440.69M454.59 460.88Q450.10 457.25 450.10 451.50Q450.10 443.94 459.35 437.81L459.74 437.56L459.35 437.31Q452.31 433.19 452.31 426.50Q452.31 421.94 456.48 419.00Q460.58 416.00 465.73 416.00Q470.80 416.00 474.97 419.00Q479.14 422.00 479.14 426.50Q479.14 430.19 477.31 432.75Q475.42 435.25 472.10 437.31L471.71 437.56L472.10 437.81Q481.35 443.94 481.35 451.50Q481.35 456.44 477.57 460.25Q473.80 464.06 468.46 464.50L465.73 464.50Q459.02 464.50 454.59 460.88Z" fill="#000000"/><path d="M492.95 452.63Q492.10 451.81 492.10 450.63L492.10 447.94Q492.10 447.44 492.43 446.75L506.29 417.82Q506.55 417.13 507.27 416.69Q507.99 416.19 508.77 416.19Q509.94 416.19 510.78 417.07Q511.63 417.88 511.63 419.00Q511.63 419.63 511.31 420.19L498.29 447.81L510.98 447.81L510.98 440.25Q510.98 439.13 511.83 438.31Q512.67 437.44 513.78 437.44Q514.89 437.44 515.73 438.31Q516.64 439.13 516.64 440.25L516.64 447.81L520.42 447.81Q521.66 447.81 522.50 448.69Q523.35 449.50 523.35 450.63Q523.35 451.75 522.44 452.63Q521.59 453.44 520.42 453.44L516.64 453.44L516.64 461.50Q516.64 462.63 515.73 463.44Q514.89 464.31 513.78 464.31Q512.67 464.31 511.83 463.50Q510.98 462.63 510.98 461.50L510.98 453.44L495.03 453.44Q493.86 453.44 492.95 452.63Z" fill="#000000"/><path d="M544.65 422.88Q542.17 424.13 542.17 426.50Q542.17 428.07 542.76 429.25Q543.35 430.44 544.71 431.44Q546.01 432.38 546.86 432.88Q547.77 433.38 549.59 434.25L549.73 434.25L549.86 434.25Q551.68 433.44 552.59 432.94Q553.50 432.44 554.80 431.50Q556.10 430.50 556.69 429.32Q557.28 428.07 557.28 426.50Q557.28 424.13 554.80 422.88Q552.39 421.63 549.73 421.63Q547.06 421.63 544.65 422.88M549.73 440.69Q539.90 445.63 539.90 451.50Q539.90 455.00 542.82 456.94Q545.56 458.88 549.73 458.88L551.03 458.88Q554.48 458.88 556.95 456.69Q559.49 454.50 559.49 451.50Q559.49 445.56 549.99 440.69L549.86 440.56L549.73 440.69M538.59 460.88Q534.10 457.25 534.10 451.50Q534.10 443.94 543.35 437.81L543.74 437.56L543.35 437.31Q536.31 433.19 536.31 426.50Q536.31 421.94 540.48 419.00Q544.58 416.00 549.73 416.00Q554.80 416.00 558.97 419.00Q563.14 422.00 563.14 426.50Q563.14 430.19 561.31 432.75Q559.42 435.25 556.10 437.31L555.71 437.56L556.10 437.81Q565.35 443.94 565.35 451.50Q565.35 456.44 561.57 460.25Q557.80 464.06 552.46 464.50L549.73 464.50Q543.02 464.50 538.59 460.88Z" fill="#000000"/><path d="M586.65 422.88Q584.17 424.13 584.17 426.50Q584.17 428.07 584.76 429.25Q585.35 430.44 586.71 431.44Q588.01 432.38 588.86 432.88Q589.77 433.38 591.59 434.25L591.73 434.25L591.86 434.25Q593.68 433.44 594.59 432.94Q595.50 432.44 596.80 431.50Q598.10 430.50 598.69 429.32Q599.28 428.07 599.28 426.50Q599.28 424.13 596.80 422.88Q594.39 421.63 591.73 421.63Q589.06 421.63 586.65 422.88M591.73 440.69Q581.90 445.63 581.90 451.50Q581.90 455.00 584.82 456.94Q587.56 458.88 591.73 458.88L593.03 458.88Q596.48 458.88 598.95 456.69Q601.49 454.50 601.49 451.50Q601.49 445.56 591.99 440.69L591.86 440.56L591.73 440.69M580.59 460.88Q576.10 457.25 576.10 451.50Q576.10 443.94 585.35 437.81L585.74 437.56L585.35 437.31Q578.31 433.19 578.31 426.50Q578.31 421.94 582.48 419.00Q586.58 416.00 591.73 416.00Q596.80 416.00 600.97 419.00Q605.14 422.00 605.14 426.50Q605.14 430.19 603.31 432.75Q601.42 435.25 598.10 437.31L597.71 437.56L598.10 437.81Q607.35 443.94 607.35 451.50Q607.35 456.44 603.57 460.25Q599.80 464.06 594.46 464.50L591.73 464.50Q585.02 464.50 580.59 460.88Z" fill="#000000"/></svg></g></svg>